<svg width="22" height="32" viewBox="0 0 22 32" fill="none" xmlns="http://www.w3.org/2000/svg">
<path fill-rule="evenodd" clip-rule="evenodd" d="M2.91675 10.6667C2.91675 6.2024 6.53578 2.58337 11.0001 2.58337C15.4644 2.58337 19.0834 6.2024 19.0834 10.6667C19.0834 13.4724 17.654 15.9443 15.4836 17.3937C15.409 17.4319 15.339 17.4773 15.2744 17.5288C14.0344 18.3028 12.5695 18.75 11.0001 18.75C6.53578 18.75 2.91675 15.131 2.91675 10.6667ZM15.0498 20.4476C13.8023 20.9647 12.4345 21.25 11.0001 21.25C9.56606 21.25 8.19865 20.9648 6.95149 20.448L5.91381 28.2606L10.3568 25.5949C10.7527 25.3573 11.2472 25.3573 11.643 25.5949L16.0864 28.2609L15.0498 20.4476ZM4.60824 19.1026C2.06147 17.1699 0.416748 14.1104 0.416748 10.6667C0.416748 4.82169 5.15507 0.083374 11.0001 0.083374C16.8451 0.083374 21.5834 4.82169 21.5834 10.6667C21.5834 14.1098 19.9392 17.1689 17.3931 19.1016L18.9057 30.5023C18.9689 30.9781 18.754 31.448 18.3528 31.7115C17.9516 31.975 17.435 31.9855 17.0235 31.7386L10.9999 28.1245L4.97637 31.7386C4.56478 31.9855 4.04813 31.975 3.64695 31.7115C3.24578 31.4479 3.03094 30.978 3.09413 30.5021L4.60824 19.1026Z" fill="#666666"/>
</svg>
